<?xml version="1.0" encoding="UTF-8"?>
<svg width="223px" height="224px" viewBox="0 0 223 224" version="1.1" xmlns="http://www.w3.org/2000/svg" xmlns:xlink="http://www.w3.org/1999/xlink">
    <!-- Generator: Sketch 52.2 (67145) - http://www.bohemiancoding.com/sketch -->
    <title>icon_diploma</title>
    <desc>Created with Sketch.</desc>
    <g id="Welcome" stroke="none" stroke-width="1" fill="none" fill-rule="evenodd">
        <g id="MVP-Practitioner" transform="translate(-39.000000, -1488.000000)">
            <rect fill="#FFFFFF" x="0" y="0" width="1440" height="2955"></rect>
            <g id="icon_diploma" transform="translate(139.000000, 1588.000000)" fill="#5B5B5B">
                <g id="Group-12" transform="translate(0.000000, 3.000000)">
                    <g id="Group-13" fill-rule="nonzero">
                        <path d="M11.5434444,9.74251904 L11.1192222,9.59234867 L4.61022222,7.28793016 L5.11111111,13.0191746 C5.11111111,14.1593857 7.97154444,15.0833721 11.5,15.0833721 C15.0284556,15.0833721 17.8888889,14.1593857 17.8888889,13.0191746 L18.3885,7.30134744 L11.9674111,9.59131658 L11.5434444,9.74251904 Z" id="Shape"></path>
                        <path d="M21.9713889,15.5994215 C21.9397,15.2441215 21.7779333,14.9275252 21.5351556,14.6963351 C21.8070667,14.4375363 21.9777778,14.0713993 21.9777778,13.6642363 C21.9777778,13.1130956 21.6657444,12.636524 21.2111111,12.4012055 L21.2111111,4.92674621 L23,4.28865114 L11.5419111,0.117940032 L0,4.28865114 L11.5419111,8.37473016 L19.9333333,5.38215979 L19.9333333,12.4012055 C19.4787,12.636266 19.1666667,13.1130956 19.1666667,13.6642363 C19.1666667,14.0713993 19.3373778,14.4375363 19.6092889,14.6963351 C19.3665111,14.9275252 19.2047444,15.2441215 19.1730556,15.5994215 L19.1666667,15.5994215 L18.9111111,18.1796684 L22.2333333,18.1796684 L21.9777778,15.5994215 L21.9713889,15.5994215 Z" id="Shape"></path>
                    </g>
                </g>
            </g>
        </g>
    </g>
</svg>