<?xml version="1.0" encoding="UTF-8"?>
<svg width="223px" height="224px" viewBox="0 0 223 224" version="1.1" xmlns="http://www.w3.org/2000/svg" xmlns:xlink="http://www.w3.org/1999/xlink">
    <!-- Generator: Sketch 52.2 (67145) - http://www.bohemiancoding.com/sketch -->
    <title>icon_memberships</title>
    <desc>Created with Sketch.</desc>
    <g id="Welcome" stroke="none" stroke-width="1" fill="none" fill-rule="evenodd">
        <g id="MVP-Practitioner" transform="translate(-39.000000, -1829.000000)">
            <rect fill="#FFFFFF" x="0" y="0" width="1440" height="2955"></rect>
            <g id="icon_memberships" transform="translate(139.000000, 1929.000000)" fill="#5B5B5B">
                <g id="Group-8" transform="translate(1.000000, 2.000000)">
                    <path d="M18,6 C18,7.65309022 16.8786854,9 15.5030208,9 C14.1213146,9 13,7.65309022 13,6 C13,4.34690978 14.1213146,3 15.5030208,3 C16.8786854,3 18,4.34690978 18,6 Z" id="Shape" fill-rule="nonzero"></path>
                    <path d="M20.9772999,14.1653194 C21.0919744,14.5863649 20.7567201,15 20.3196077,15 L16.1656916,15 C16.1387093,14.9326327 16.1049815,14.8645918 16.0779993,14.7904877 C16.0442715,14.7029103 16.0105437,14.6146591 15.9768159,14.5270817 C15.9026147,14.3445163 15.8209934,14.1686877 15.7333011,13.9935328 C15.7063189,13.9329022 15.6725911,13.8648613 15.6388633,13.797494 C15.5235142,13.5677715 15.388603,13.3380491 15.2530172,13.1150634 C15.2192894,13.0679063 15.1855616,13.0207492 15.1518338,12.9661817 C15.0364847,12.7970898 14.9218102,12.6279979 14.7997156,12.4595797 C14.7457511,12.3922124 14.6917866,12.3241715 14.6371475,12.2500675 C14.5150529,12.1079225 14.4003784,11.9664512 14.2715382,11.831043 C14.2175737,11.7704124 14.1629346,11.7023715 14.1022246,11.6417409 C13.9396566,11.472649 13.770343,11.3102939 13.5949584,11.1486124 C13.5747218,11.1284022 13.5544851,11.108192 13.5342484,11.0879818 C13.3649348,10.9391001 13.1821301,10.7908921 13,10.6487471 C13.7919288,10.2229859 14.6715499,10.0000002 15.5983899,10.0000002 C18.1576556,9.99932652 20.3236551,11.767044 20.9772999,14.1653194 Z" id="Shape" fill-rule="nonzero"></path>
                    <path d="M14.3461523,17 L0.652837201,17 C0.243616171,17 -0.0629748223,16.6309044 0.0110746973,16.2336141 C0.670375245,12.6964482 3.76226747,10.012175 7.4731877,10 L7.5186567,10 C8.873633,10.0064079 10.196781,10.3601245 11.3432494,11.0412852 C11.7667607,11.2854266 12.1577942,11.5686562 12.5163497,11.8832845 C13.5913669,12.8284511 14.3864249,14.0626144 14.8034406,15.4569755 C14.8034406,15.4569755 14.8034406,15.4569755 14.8034406,15.4633834 C14.8807379,15.7177774 14.9417963,15.9785793 14.9898635,16.2432259 C15.0606652,16.6373123 14.751476,17 14.3461523,17 Z" id="Shape" fill-rule="nonzero"></path>
                    <path d="M12,4 C12,6.19873561 10.218848,7.98703193 8.026407,8 L7.98019475,8 C5.78181218,7.98703193 4,6.19808721 4,4 C4,1.79478035 5.79501568,0 8,0 C10.2049843,0 12,1.79478035 12,4 Z" id="Shape" fill-rule="nonzero"></path>
                </g>
            </g>
        </g>
    </g>
</svg>