<?xml version="1.0" encoding="UTF-8"?>
<svg width="28px" height="16px" viewBox="0 0 28 16" version="1.1" xmlns="http://www.w3.org/2000/svg" xmlns:xlink="http://www.w3.org/1999/xlink">
    <!-- Generator: Sketch 52.2 (67145) - http://www.bohemiancoding.com/sketch -->
    <title>Fill 1</title>
    <desc>Created with Sketch.</desc>
    <g id="Welcome" stroke="none" stroke-width="1" fill="none" fill-rule="evenodd">
        <g id="Phase-1---Home-Copy-7" transform="translate(-1092.000000, -3465.000000)" fill="#79158F">
            <g id="Group-5" transform="translate(0.000000, 2842.000000)">
                <path d="M1120,631.000058 C1120,630.805111 1119.88121,630.546164 1119.76073,630.421112 L1112.97327,623.262819 C1112.65594,622.937767 1112.14261,622.899873 1111.77309,623.229977 C1111.44261,623.525134 1111.43497,624.10029 1111.74,624.42071 L1117.18897,630.157955 L1092.84848,630.157955 C1092.38012,630.157955 1092,630.534796 1092,631.000058 C1092,631.464898 1092.38012,631.84216 1092.84848,631.84216 L1117.18897,631.84216 L1111.74,637.578984 C1111.43497,637.899404 1111.45618,638.460666 1111.77309,638.769717 C1112.10739,639.096032 1112.66061,639.06698 1112.97327,638.736875 L1119.76073,631.579003 C1119.96012,631.384899 1119.99661,631.197531 1120,631.000058" id="Fill-1"></path>
            </g>
        </g>
    </g>
</svg>