<?xml version="1.0" encoding="UTF-8"?>
<svg width="31px" height="30px" viewBox="0 0 31 30" version="1.1" xmlns="http://www.w3.org/2000/svg" xmlns:xlink="http://www.w3.org/1999/xlink">
    <!-- Generator: Sketch 52.2 (67145) - http://www.bohemiancoding.com/sketch -->
    <title>Symbol Copy</title>
    <desc>Created with Sketch.</desc>
    <g id="Symbols" stroke="none" stroke-width="1" fill="none" fill-rule="evenodd">
        <g id="Footer" transform="translate(-37.000000, -34.000000)" fill="#79158F">
            <path d="M47.6017337,41.7517732 C47.6017337,44.4523814 49.7945406,46.6415766 52.4996041,46.6415766 C55.2046677,46.6415766 57.3974746,44.4523814 57.3974746,41.7517732 C57.3974746,39.051165 55.2046677,36.8619698 52.4996041,36.8619698 C49.7945406,36.8619698 47.6017337,39.051165 47.6017337,41.7517732 M67.3086514,44.2378567 C66.8595757,42.7965733 66.2033805,41.445874 65.3736355,40.2197476 C63.7141456,37.7670205 61.369166,35.7966183 58.602505,34.6523812 C58.1165341,34.451294 57.6410142,34.3011109 57.1818043,34.1872879 C57.1414254,34.1811225 57.0915457,34.1683174 57.0356488,34.151244 C56.8103192,34.098917 56.5898984,34.0563915 56.3739114,34.0206637 C55.5375158,33.8908739 55.6152648,34.4955585 56.5777056,35.0234125 C58.8555455,36.4161631 60.3756889,38.9234303 60.3756889,41.7854458 C60.3756889,43.0031936 60.0998462,44.1562836 59.6083332,45.1871719 C59.6083332,45.1871719 57.4682563,50.7712955 55.2881172,54.784504 C53.039255,58.9244986 51.5789673,61.5326256 49.2178361,63.5080866 C49.0780146,63.6250713 49.1415123,63.8525592 49.321871,63.8789598 C51.0033713,64.1251019 54.9723708,64.3506928 57.5201945,60.7336515 C58.8471531,58.7926536 59.2235469,56.8801114 59.2235469,56.8801114 C59.2235469,56.8801114 58.5041707,61.0872932 57.6479816,62.8324207 C57.6387974,62.979284 57.7874864,63.0844122 57.9225575,63.0252874 C58.6517513,62.7057927 60.5747327,61.701463 61.8340765,59.5652271 C61.8271092,59.4986722 61.8248923,59.4537754 61.8248923,59.4537754 C62.6915325,57.7726733 63.5179521,53.991063 63.5179521,53.991063 C63.5179521,53.991063 63.5082929,58.3049538 63.0433823,60.1620072 C63.0535166,60.2849993 63.1963468,60.3468115 63.2927809,60.2695067 C64.2606055,59.4942458 68,56.0314979 68,48.8062683 C67.9998417,47.2111658 67.7575688,45.6792982 67.3086514,44.2378567 M49.1818911,62.0049909 C49.0244929,62.1629203 48.7716107,62.1722475 48.6066118,62.0222225 L48.6037615,62.019535 C48.4153271,61.8467454 48.2313264,61.6586213 48.0517595,61.4562693 C46.9477553,59.9185525 45.5763009,56.3041988 45.5763009,56.3041988 C45.5763009,56.3041988 46.4052541,61.1873626 47.3520184,62.8324207 C47.3612026,62.9797582 47.2112468,63.0839379 47.0757007,63.024497 C46.2355047,62.6561532 43.8202185,61.3821263 42.6500248,58.5239049 C42.0563771,56.756487 41.5960587,54.650762 41.5960587,54.650762 C41.5960587,54.650762 41.5875079,58.3890563 41.956776,60.1620072 C41.9466417,60.2849993 41.8036532,60.3468115 41.7072191,60.2695067 C40.7395528,59.4944039 37,56.0314979 37,48.8062683 C37.0001583,47.2111658 37.2424312,45.6792982 37.6915069,44.2378567 C38.1404243,42.7965733 38.7967779,41.445874 39.6263645,40.2197476 C41.285696,37.7670205 43.630834,35.7966183 46.397495,34.6523812 C46.8834659,34.451294 47.3588274,34.3011109 47.8181957,34.1872879 C47.8585746,34.1811225 47.9084543,34.1683174 47.9645096,34.151244 C48.1896808,34.098917 48.4101016,34.0563915 48.6260886,34.0206637 C49.4498164,33.8753813 49.4344566,34.5265436 48.4224528,35.0234125 C46.1444545,36.4161631 44.6243111,38.9234303 44.6243111,41.7854458 C44.6243111,43.0031936 44.9001538,44.1562836 45.3916668,45.1871719 C45.3916668,45.1871719 47.5319021,50.7712955 49.7118828,54.784504 C50.4192245,56.0866704 51.0480255,57.2350178 51.6521242,58.2617959 C51.7583759,58.4424899 51.7560006,58.6679226 51.6430983,58.8446644 C50.858641,60.0720555 50.0789341,61.1043666 49.1818911,62.0049909" id="Symbol-Copy"></path>
        </g>
    </g>
</svg>