<?xml version="1.0" encoding="UTF-8"?>
<svg width="239px" height="43px" viewBox="0 0 239 43" version="1.1" xmlns="http://www.w3.org/2000/svg" xmlns:xlink="http://www.w3.org/1999/xlink">
    <!-- Generator: Sketch 52.2 (67145) - http://www.bohemiancoding.com/sketch -->
    <title>Group</title>
    <desc>Created with Sketch.</desc>
    <defs>
        <polygon id="path-1" points="0.00899814209 0.114814433 15.4257701 0.114814433 15.4257701 19.7693608 0.00899814209 19.7693608"></polygon>
    </defs>
    <g id="Symbols" stroke="none" stroke-width="1" fill="none" fill-rule="evenodd">
        <g id="Header-Transparent-Copy" transform="translate(-50.000000, -29.000000)">
            <g id="Group" transform="translate(50.000000, 29.000000)">
                <path d="M107.687992,23.6629584 C107.929791,21.7365071 109.580076,18.6464422 113.604707,18.6464422 C117.347908,18.6464422 119.239992,21.5759328 119.360669,23.6629584 L107.687992,23.6629584 Z M113.604707,15.5154639 C108.01039,15.5154639 104.306821,19.8500894 104.306821,25.2682612 C104.306821,30.7665002 108.37242,35.0206186 114.006814,35.0206186 C118.91804,35.0206186 121.735459,31.3687637 121.735459,31.3687637 L119.602022,29.1611974 C119.602022,29.1611974 117.670306,31.8900802 114.006814,31.8900802 C110.505412,31.8900802 107.808669,29.2817381 107.607393,26.4723483 L122.620718,26.4723483 C122.66124,26.031099 122.66124,25.7495441 122.66124,25.3888019 C122.66124,19.4084001 118.797363,15.5154639 113.604707,15.5154639 Z" id="Fill-1" fill="#FFFFFF"></path>
                <path d="M148.385906,28.7598405 C148.385906,28.7598405 146.579256,31.8900096 142.96418,31.8900096 C139.188701,31.8900096 136.779095,28.9204184 136.779095,25.2680412 C136.779095,21.6156641 139.188701,18.6460729 142.96418,18.6460729 C146.579256,18.6460729 148.385906,21.7766819 148.385906,21.7766819 L148.385906,28.7598405 Z M148.667167,18.6865473 C148.667167,18.6865473 146.860073,15.5154639 142.321678,15.5154639 C137.381608,15.5154639 133.405291,19.8097127 133.405291,25.2680412 C133.405291,30.7263698 137.381608,35.0206186 142.321678,35.0206186 C146.860073,35.0206186 148.667167,31.8499751 148.667167,31.8499751 L148.667167,34.5393248 L151.75971,34.5393248 L151.75971,15.9967577 L148.667167,15.9967577 L148.667167,18.6865473 Z" id="Fill-3" fill="#FFFFFF"></path>
                <path d="M160.317491,18.8533385 L160.317491,15.9977189 L157.131735,15.9977189 L157.131735,34.5773196 L160.562862,34.5773196 L160.562862,21.7891869 C160.562862,21.7891869 161.910369,18.6523254 164.892779,18.6523254 C166.322076,18.6523254 167.057285,19.0543515 167.057285,19.0543515 L168.323454,15.9977189 C168.323454,15.9977189 167.139076,15.5154639 165.586867,15.5154639 C161.992611,15.5154639 160.317491,18.8533385 160.317491,18.8533385" id="Fill-5" fill="#FFFFFF"></path>
                <path d="M172.152294,23.6629584 C172.394092,21.7365071 174.043933,18.6464422 178.069009,18.6464422 C181.81221,18.6464422 183.703849,21.5759328 183.82497,23.6629584 L172.152294,23.6629584 Z M178.069009,15.5154639 C172.474246,15.5154639 168.771123,19.8500894 168.771123,25.2682612 C168.771123,30.7665002 172.836721,35.0206186 178.471116,35.0206186 C183.382341,35.0206186 186.199316,31.3687637 186.199316,31.3687637 L184.066324,29.1611974 C184.066324,29.1611974 182.134162,31.8900802 178.471116,31.8900802 C174.969713,31.8900802 172.27297,29.2817381 172.071694,26.4723483 L187.085019,26.4723483 C187.125542,26.031099 187.125542,25.7495441 187.125542,25.3888019 C187.125542,19.4084001 183.261219,15.5154639 178.069009,15.5154639 Z" id="Fill-7" fill="#FFFFFF"></path>
                <path d="M215.518548,24.2048413 C215.518548,28.765183 213.499387,32.2355371 208.613642,32.2355371 C203.727898,32.2355371 201.709184,28.765183 201.709184,24.2048413 L201.709184,7.53608247 L198.317261,7.53608247 L198.317261,24.5675807 C198.317261,30.9840863 202.15322,35.4639175 208.613642,35.4639175 C215.074511,35.4639175 218.910024,30.9840863 218.910024,24.5675807 L218.910024,7.53608247 L215.518548,7.53608247 L215.518548,24.2048413 Z" id="Fill-9" fill="#FFFFFF"></path>
                <g id="Group-13" transform="translate(223.386711, 15.515464)">
                    <mask id="mask-2" fill="white">
                        <use xlink:href="#path-1"></use>
                    </mask>
                    <g id="Clip-12"></g>
                    <path d="M8.83031107,8.40539175 C5.75527435,7.75817526 4.29856021,6.98993814 4.29856021,5.57404124 C4.29856021,4.36117526 5.47190003,3.18820619 7.85931753,3.18820619 C10.6917178,3.18820619 12.5531245,5.25087629 12.5531245,5.25087629 L14.7784859,2.94572165 C14.7784859,2.94572165 12.2701978,0.114814433 7.85931753,0.114814433 C3.69152137,0.114814433 0.980439352,2.78391753 0.980439352,5.49380412 C0.980439352,9.01182474 3.8128396,10.5890825 7.81857967,11.3981031 C10.6917178,11.9637526 12.0678515,12.7732165 12.0678515,14.3903711 C12.0678515,15.8869485 9.92307051,16.6955258 8.02137362,16.6955258 C4.33885039,16.6955258 2.35612545,13.6624742 2.35612545,13.6624742 L0.00899814209,15.8461649 C0.00899814209,15.8461649 2.76037034,19.7693608 8.02137362,19.7693608 C11.6224211,19.7693608 15.4258149,17.9088351 15.4258149,14.3096907 C15.4258149,10.5084021 12.3910684,9.17362887 8.83031107,8.40539175" id="Fill-11" fill="#FFFFFF" mask="url(#mask-2)"></path>
                </g>
                <path d="M21.3613785,35.6486624 C21.5262423,35.3949663 21.5298557,35.0711934 21.3744773,34.8117315 C20.4936981,33.3387862 19.5763328,31.6910922 18.544692,29.8229665 C15.3639501,24.0642429 12.2419267,16.0519706 12.2419267,16.0519706 C11.525108,14.572816 11.1226597,12.9184692 11.1226597,11.1714257 C11.1226597,7.06438773 13.3399647,3.46695954 16.6634381,1.46888113 C18.1395336,0.755693538 18.1621176,-0.178812836 16.9601929,0.0296437351 C16.6453708,0.081092591 16.3237735,0.141855464 15.9949493,0.216811125 C15.9131949,0.241648503 15.8404742,0.259833013 15.7813039,0.268703505 C15.1119117,0.43236409 14.4181288,0.64747353 13.7094403,0.935764533 C9.67321341,2.5781362 6.25217688,5.40560565 3.83116344,8.92452999 C2.6211084,10.6839922 1.66354338,12.6217512 1.00815336,14.6899065 C0.353215021,16.7580618 0,18.9557263 0,21.2447569 C0,31.6117013 5.45495884,36.5809512 6.86691556,37.6928674 C7.00784022,37.8037486 7.21606544,37.7150436 7.23097094,37.5389644 C6.69211477,34.9944636 6.70476186,29.6309204 6.70476186,29.6309204 C6.70476186,29.6309204 7.37596073,32.6522101 8.24228607,35.1882839 C9.94919088,39.289556 13.4727591,41.117321 14.698623,41.6455588 C14.8964596,41.7311591 15.1150735,41.5816913 15.1019747,41.37013 C13.7207323,39.009692 12.511129,32.0028901 12.511129,32.0028901 C12.511129,32.0028901 14.5120785,37.189467 16.1223235,39.3955584 C16.3838471,39.6865106 16.6530494,39.9561735 16.9276718,40.2041038 L16.9317369,40.207652 C17.1729349,40.423205 17.5415071,40.4094557 17.7709614,40.1832581 C19.0799347,38.8908274 20.217269,37.4094552 21.3613785,35.6486624" id="Fill-14" fill="#FFFFFF"></path>
                <path d="M40.9640323,8.91186256 C38.5613631,5.39588322 35.1647179,2.57113611 31.1587749,0.93078885 C30.455325,0.64277542 29.7666704,0.427873091 29.1013297,0.264370082 C29.0430451,0.25550813 28.9708619,0.237341129 28.8897119,0.212527664 C28.5637666,0.137644172 28.2445465,0.076939803 27.9320516,0.0255404831 C26.7206293,-0.160560503 26.8331634,0.706138374 28.2266128,1.46294905 C31.5250709,3.45954677 33.7264342,7.05351129 33.7264342,11.1561518 C33.7264342,12.9019563 33.3274091,14.5547103 32.6154407,16.0324408 C32.6154407,16.0324408 29.5164951,24.0369986 26.3597133,29.7901777 C23.1029511,35.7245837 20.988118,39.462998 17.5690557,42.2948347 C17.3668531,42.4627686 17.4587634,42.7888885 17.7201472,42.8265518 C20.1550971,43.1792574 25.9019553,43.5027187 29.5918167,38.3180338 C31.513414,35.535381 32.0581505,32.7939362 32.0581505,32.7939362 C32.0581505,32.7939362 31.0166502,38.8249375 29.7765339,41.3262233 C29.763532,41.5371378 29.9787366,41.687791 30.1746624,41.6027162 C31.2300614,41.1449964 34.0147186,39.7049293 35.8381288,36.643125 C35.8282653,36.5474159 35.8246786,36.4831667 35.8246786,36.4831667 C37.0800384,34.073159 38.2766654,28.6527462 38.2766654,28.6527462 C38.2766654,28.6527462 38.2627668,34.8366161 37.5893559,37.4987464 C37.6041512,37.6746561 37.8108372,37.7632756 37.9507202,37.6525013 C39.3517915,36.5412125 44.7668761,31.5771903 44.7668761,21.2202273 C44.7664277,18.9334007 44.4158236,16.7378521 43.7657265,14.6716881 C43.1156295,12.605524 42.165591,10.6696307 40.9640323,8.91186256" id="Fill-16" fill="#FFFFFF"></path>
                <path d="M15.2207379,11.0824742 C15.2207379,14.9998931 18.4277548,18.1752577 22.3832116,18.1752577 C26.339574,18.1752577 29.5461382,14.9998931 29.5461382,11.0824742 C29.5461382,7.1655037 26.339574,3.98969072 22.3832116,3.98969072 C18.4277548,3.98969072 15.2207379,7.1655037 15.2207379,11.0824742" id="Fill-18" fill="#FFFFFF"></path>
                <polygon id="Fill-20" fill="#FFFFFF" points="101.159617 7.53608247 93.9287567 28.9985466 87.0616737 7.53608247 84.5974608 7.53608247 77.6499357 28.9985466 70.4999643 7.53608247 66.7026453 7.53608247 76.2712457 35.0206186 78.8422679 35.0206186 85.7285676 14.3666795 92.5809028 35.0206186 95.1510313 35.0206186 104.75449 7.53608247"></polygon>
            </g>
        </g>
    </g>
</svg>